<svg viewBox="0 0 256 256" class="h-12" astro-icon="docker">
    <g fill="currentColor" stroke-miterlimit="10" font-family="none" font-size="none" font-weight="none"
        style="mix-blend-mode:normal" text-anchor="none">
        <path
            d="M253.477 105.85c-.693-.543-7.173-5.37-20.842-5.37-3.611.016-7.211.32-10.768.912-2.646-17.888-17.168-26.293-17.84-26.683l-3.67-2.09-2.416 3.434c-3.024 4.619-5.696 9.387-6.992 14.736-2.448 10.214-.96 19.803 4.299 28-6.357 3.494-17.19 3.803-19.248 3.878H8.437c-4.405.005-7.978 3.52-8.005 7.86-.197 14.577 1.883 29.617 6.965 43.302 5.808 15.03 14.454 26.102 25.696 32.875 12.598 7.61 33.067 11.963 56.272 11.963 10.48.032 20.944-.902 31.248-2.795a131.913 131.913 0 0 0 40.784-14.613 111.936 111.936 0 0 0 27.835-22.48c13.36-14.923 21.317-31.536 27.237-46.304h2.358c14.629 0 23.62-5.776 28.58-10.614a30.808 30.808 0 0 0 7.542-11.013l1.05-3.03z">
        </path>
        <path
            d="M42.667 117.333h-16A5.335 5.335 0 0 1 21.333 112V96a5.335 5.335 0 0 1 5.334-5.333h16A5.335 5.335 0 0 1 48 96v16a5.335 5.335 0 0 1-5.333 5.333zM74.667 117.333h-16A5.335 5.335 0 0 1 53.333 112V96a5.335 5.335 0 0 1 5.334-5.333h16A5.335 5.335 0 0 1 80 96v16a5.335 5.335 0 0 1-5.333 5.333zM106.667 117.333h-16A5.335 5.335 0 0 1 85.333 112V96a5.335 5.335 0 0 1 5.334-5.333h16A5.335 5.335 0 0 1 112 96v16a5.335 5.335 0 0 1-5.333 5.333zM138.667 117.333h-16a5.335 5.335 0 0 1-5.334-5.333V96a5.335 5.335 0 0 1 5.334-5.333h16A5.335 5.335 0 0 1 144 96v16a5.335 5.335 0 0 1-5.333 5.333zM74.667 85.333h-16A5.335 5.335 0 0 1 53.333 80V64a5.335 5.335 0 0 1 5.334-5.333h16A5.335 5.335 0 0 1 80 64v16a5.335 5.335 0 0 1-5.333 5.333zM106.667 85.333h-16A5.335 5.335 0 0 1 85.333 80V64a5.335 5.335 0 0 1 5.334-5.333h16A5.335 5.335 0 0 1 112 64v16a5.335 5.335 0 0 1-5.333 5.333zM138.667 85.333h-16A5.335 5.335 0 0 1 117.333 80V64a5.335 5.335 0 0 1 5.334-5.333h16A5.335 5.335 0 0 1 144 64v16a5.335 5.335 0 0 1-5.333 5.333zM138.667 53.333h-16A5.335 5.335 0 0 1 117.333 48V32a5.335 5.335 0 0 1 5.334-5.333h16A5.335 5.335 0 0 1 144 32v16a5.335 5.335 0 0 1-5.333 5.333zM170.667 117.333h-16a5.335 5.335 0 0 1-5.334-5.333V96a5.335 5.335 0 0 1 5.334-5.333h16A5.335 5.335 0 0 1 176 96v16a5.335 5.335 0 0 1-5.333 5.333z">
        </path>
    </g>
</svg>