<svg id="logo_vector" data-name="logo vector" viewBox="0 0 300 371.43" class="h-12" astro-icon="flutter">
    <defs>
        <clipPath id="clip-path">
            <path fill="currentColor"
                d="m300 171.43-100 100 100 100H185.72l-42.86-42.86-57.15-57.15 100-100ZM185.72 0 0 185.72l57.15 57.15L300 0Z"
                class="cls-1"></path>
        </clipPath>
        <linearGradient id="linear-gradient" x1="6254.1" x2="6424.34" y1="5576.56" y2="5406.31"
            gradientTransform="matrix(.25 0 0 .25 -1404 -1054.53)" gradientUnits="userSpaceOnUse">
            <stop offset="0" stop-color="#1a237e" stop-opacity=".4"></stop>
            <stop offset="1" stop-color="#1a237e" stop-opacity="0"></stop>
        </linearGradient>
        <radialGradient id="radial-gradient" cx="5649.77" cy="4319.41" r="1817.72"
            gradientTransform="matrix(.25 0 0 .25 -1404 -1054.53)" gradientUnits="userSpaceOnUse">
            <stop offset="0" stop-color="#fff" stop-opacity=".1"></stop>
            <stop offset="1" stop-color="#fff" stop-opacity="0"></stop>
        </radialGradient>
    </defs>
    <g class="cls-2">
        <path d="M300 171.43H185.72L85.73 271.44l57.12 57.13L300 171.43z" class="cls-4"></path>
    </g>
    <g class="cls-2">
        <path d="M57.15 242.87 0 185.72 185.72 0H300L57.15 242.87z" class="cls-4"></path>
    </g>
    <g class="cls-2">
        <path d="m142.85 328.57 42.87 42.87H300l-99.99-100-57.16 57.13z" class="cls-5"></path>
    </g>
    <g class="cls-2">
        <path d="m142.85 328.57 84.76-29.33-27.6-27.8-57.16 57.13z" class="cls-6"></path>
    </g>
    <g class="cls-2">
        <path d="M102.45 231.03h80.81v80.81h-80.81z" class="cls-7" transform="rotate(-45 142.862 271.435)"></path>
    </g>
    <path fill="currentColor"
        d="m300 171.43-100 100 100 100H185.72l-42.86-42.86-57.15-57.15 100-100ZM185.72 0 0 185.72l57.15 57.15L300 0Z"
        class="cls-8"></path>
</svg>